<svg width="27" height="28" viewBox="0 0 27 28" fill="none" xmlns="http://www.w3.org/2000/svg">
<path d="M0.765554 9.22225L18.8838 0.0666998L26.6733 20.7053L7.63222 26.3889L0.765554 9.22225Z" fill="black"/>
<path d="M16.6839 19.2349C16.0188 19.9994 15.0827 20.6094 13.8756 21.065C12.6813 21.5158 11.6251 21.555 10.707 21.1826C9.80174 20.8054 9.12131 20.0132 8.66571 18.8061C8.34097 17.9457 8.26231 17.2125 8.4297 16.6065C8.59225 15.9876 8.94199 15.3788 9.4789 14.7801C8.55399 14.2342 7.90736 13.4733 7.53901 12.4973C6.78291 10.494 7.58631 9.04641 9.9492 8.1546C12.3249 7.25794 13.8909 7.81128 14.647 9.8146C14.9668 10.6622 15.0584 11.3905 14.9215 11.9997C14.7846 12.6088 14.3989 13.2972 13.7644 14.0649L15.919 15.3423L15.996 15.3132C16.029 14.934 15.9388 14.4619 15.7256 13.8969L15.4129 13.0686L17.9556 12.1089L18.2028 12.7638C18.7408 14.1893 18.7764 15.4302 18.3095 16.4867L18.3604 16.6215L19.9399 16.0254L20.6561 18.5059L19.6737 18.8767C18.9802 19.1384 18.4367 19.2922 18.0432 19.338C17.6498 19.3838 17.1966 19.3495 16.6839 19.2349ZM13.2747 18.365L14.4497 17.9215L14.4206 17.8444L11.7811 16.3319C11.5618 16.7227 11.5298 17.1236 11.6849 17.5346C11.9999 18.3693 12.5298 18.6461 13.2747 18.365ZM12.0647 11.4274C11.8854 10.9522 11.571 10.7995 11.1215 10.9691C10.6849 11.1339 10.5514 11.441 10.721 11.8905C10.847 12.2244 11.2019 12.5233 11.7856 12.7871C11.9233 12.5298 12.0096 12.3505 12.0448 12.2492C12.1695 11.9967 12.1762 11.7228 12.0647 11.4274Z" fill="white"/>
</svg>
