<svg width="100" height="107" viewBox="0 0 100 107" fill="none" xmlns="http://www.w3.org/2000/svg">
<path d="M6.25 16.0824L100 6.17308V107L7.93426 100.573L6.25 16.0824Z" fill="#9B7AD5"/>
<path d="M0 9.90933L93.75 0V100.827L1.68426 94.4L0 9.90933Z" fill="black"/>
<path d="M49.2361 59.2069L44.572 59.3019L44.9962 79.6315L27.962 79.9783L26.6643 17.7876L47.2473 17.3686C54.48 17.2214 59.8881 18.7477 63.4713 21.9476C67.0546 25.1475 68.9242 30.4862 69.0802 37.9638C69.2363 45.4414 67.6916 50.8162 64.4463 54.0883C61.2009 57.3604 56.1309 59.0666 49.2361 59.2069ZM50.8805 45.648C51.4651 44.5006 51.7268 42.4581 51.6655 39.5205C51.6042 36.5829 51.2231 34.5201 50.522 33.3321C49.821 32.1441 48.4566 31.5708 46.4287 31.612L43.9952 31.6616L44.3254 47.4847L47.1644 47.4269C49.0571 47.3883 50.2958 46.7954 50.8805 45.648Z" fill="white"/>
</svg>
